<?xml version="1.0" standalone="no"?>
<!DOCTYPE svg PUBLIC "-//W3C//DTD SVG 20010904//EN"
 "http://www.w3.org/TR/2001/REC-SVG-20010904/DTD/svg10.dtd">
<svg version="1.0" xmlns="http://www.w3.org/2000/svg"
 width="950.000000pt" height="950.000000pt" viewBox="0 0 950.000000 950.000000"
 preserveAspectRatio="xMidYMid meet">
<metadata>
Created by potrace 1.14, written by Peter Selinger 2001-2017
</metadata>
<g transform="translate(0.000000,950.000000) scale(0.100000,-0.100000)"
fill="#000000" stroke="none">
<path d="M2307 9434 c-230 -49 -471 -263 -545 -484 -85 -255 -19 -537 175
-740 68 -72 257 -277 358 -388 27 -29 65 -70 84 -91 35 -37 163 -176 272 -295
30 -33 68 -74 84 -92 17 -18 68 -74 115 -125 47 -51 113 -122 147 -158 34 -36
71 -77 83 -91 21 -24 149 -163 264 -287 32 -35 66 -72 75 -82 29 -33 194 -212
263 -285 37 -39 68 -74 68 -79 0 -4 -19 -28 -42 -53 -88 -94 -115 -123 -188
-204 -41 -45 -88 -97 -105 -114 -16 -18 -70 -77 -120 -131 -49 -54 -114 -123
-142 -153 -29 -31 -53 -57 -53 -59 0 -2 -12 -16 -27 -31 -34 -33 -133 -141
-226 -244 -37 -42 -85 -93 -105 -115 -33 -36 -170 -185 -262 -285 -19 -21 -53
-58 -75 -82 -57 -61 -214 -232 -252 -275 -18 -20 -33 -39 -33 -43 0 -5 -7 -8
-15 -8 -8 0 -15 -4 -15 -8 0 -5 -18 -29 -41 -53 -22 -24 -75 -82 -117 -128
-43 -46 -94 -102 -115 -125 -72 -78 -156 -227 -170 -302 -2 -11 -8 -28 -13
-39 -16 -37 -10 -265 10 -330 48 -160 140 -291 286 -404 53 -42 190 -117 190
-105 0 4 6 2 13 -4 12 -10 42 -17 128 -31 124 -19 304 13 409 72 19 11 44 25
55 31 65 35 160 123 305 286 41 46 86 95 99 109 12 14 55 61 95 105 39 43 85
93 101 111 17 18 45 50 64 71 19 22 55 62 80 89 25 28 84 93 131 144 47 52 94
105 105 117 11 12 52 57 90 99 39 43 81 90 95 106 14 15 50 55 80 89 30 34 71
78 90 99 19 21 60 65 90 99 30 34 71 79 90 100 65 71 179 197 197 218 10 12
56 63 103 114 47 51 93 102 103 114 10 12 37 41 59 65 l40 45 57 -60 c31 -33
85 -94 121 -134 36 -40 76 -85 90 -100 14 -15 57 -63 96 -106 40 -44 83 -91
95 -105 13 -14 56 -61 94 -104 39 -42 81 -90 95 -105 27 -29 133 -147 198
-220 22 -25 55 -61 73 -81 19 -20 66 -71 104 -114 39 -43 81 -90 95 -105 14
-15 57 -63 95 -106 39 -43 93 -103 121 -133 28 -31 67 -73 85 -95 19 -21 52
-58 74 -81 22 -24 69 -76 105 -116 36 -40 76 -84 89 -98 13 -14 51 -57 85 -95
167 -188 255 -256 392 -304 81 -29 104 -33 215 -37 199 -7 384 67 524 209 61
62 115 126 115 137 0 4 13 27 29 51 16 24 41 81 56 128 24 72 28 103 29 205 0
70 -5 143 -13 175 -27 112 -101 244 -187 336 -16 17 -63 68 -104 113 -41 45
-95 104 -120 130 -38 40 -152 163 -260 281 -14 15 -72 77 -129 139 -57 61
-113 122 -123 133 -10 12 -65 72 -122 132 -57 61 -114 123 -127 137 -13 15
-67 73 -119 130 -52 56 -115 124 -140 151 -25 27 -65 71 -90 97 -25 27 -83 90
-130 141 -47 51 -103 112 -125 135 -74 80 -222 240 -266 289 -24 26 -54 58
-66 71 l-21 22 51 55 c52 55 210 226 257 278 39 43 191 208 230 250 19 21 76
82 125 136 50 54 106 115 125 135 19 20 60 65 92 100 31 35 71 80 90 99 18 20
80 87 138 150 58 63 117 127 132 143 15 16 53 58 85 93 32 36 85 93 118 128
33 35 90 96 127 137 36 41 88 97 115 126 90 95 188 205 197 222 5 9 16 22 23
29 18 18 91 171 97 202 2 14 5 25 6 25 2 0 7 24 14 70 9 56 10 163 2 205 -13
71 -29 135 -36 145 -4 6 -11 21 -15 35 -13 43 -90 152 -151 216 -167 172 -327
239 -552 230 -221 -9 -384 -97 -577 -310 -11 -13 -59 -65 -106 -117 -47 -52
-103 -113 -125 -137 -21 -24 -55 -60 -74 -81 -19 -20 -73 -80 -120 -131 -47
-52 -97 -107 -112 -122 -16 -15 -28 -29 -28 -32 0 -2 -17 -22 -37 -43 -21 -21
-74 -78 -118 -127 -44 -48 -93 -103 -110 -120 -16 -18 -59 -65 -95 -105 -35
-40 -87 -97 -115 -126 -27 -30 -77 -84 -110 -120 -33 -37 -73 -82 -90 -100
-16 -18 -59 -65 -95 -105 -36 -40 -81 -90 -101 -111 -20 -21 -68 -73 -106
-116 -39 -43 -87 -95 -106 -115 l-35 -37 -73 81 c-41 45 -82 91 -92 102 -10
12 -42 46 -70 77 -29 30 -88 95 -132 144 -44 49 -105 116 -136 149 -32 34 -73
79 -93 102 -19 22 -50 56 -68 76 -18 19 -67 72 -108 118 -41 46 -91 100 -110
121 -19 20 -50 54 -69 76 -19 21 -64 70 -100 109 -36 38 -93 101 -126 138 -33
37 -82 91 -109 119 -26 29 -80 88 -120 131 -39 44 -87 96 -106 117 -19 21 -64
70 -100 111 -94 106 -241 248 -257 248 -7 0 -13 4 -13 8 0 15 -163 94 -222
108 -10 2 -28 7 -40 10 -49 13 -225 12 -291 -2z"/>
<path d="M2329 1716 c-2 -2 -23 -6 -46 -9 -80 -11 -273 -88 -273 -109 0 -4 -5
-8 -11 -8 -24 0 -209 -170 -209 -191 0 -4 -6 -14 -12 -21 -38 -41 -102 -176
-130 -276 -18 -63 -22 -103 -22 -217 0 -83 6 -158 13 -185 7 -25 14 -52 16
-60 11 -54 71 -177 126 -257 99 -143 300 -278 473 -315 79 -17 254 -18 322 -2
32 8 70 17 83 20 23 5 134 57 180 84 57 35 178 149 225 213 38 52 106 185 106
208 0 10 4 20 9 23 5 3 12 23 16 43 5 21 10 45 11 53 50 230 -10 501 -154 690
-55 73 -152 164 -211 198 -41 24 -142 74 -154 76 -7 2 -19 5 -27 8 -60 22
-120 31 -216 34 -61 2 -113 2 -115 0z"/>
<path d="M6968 1715 c-2 -2 -19 -7 -38 -10 -19 -3 -51 -10 -70 -16 -33 -10
-46 -15 -110 -42 -48 -21 -163 -98 -207 -140 -103 -96 -200 -257 -236 -392
-35 -131 -39 -282 -13 -410 18 -86 108 -295 127 -295 5 0 9 -6 9 -14 0 -8 37
-52 83 -97 92 -94 123 -120 131 -112 3 4 6 1 6 -5 0 -7 6 -12 14 -12 8 0 16
-3 18 -7 5 -11 105 -58 163 -77 81 -25 104 -28 217 -31 100 -2 136 3 273 38
29 8 155 71 155 78 0 5 5 9 11 9 13 0 72 47 140 112 49 47 130 164 155 224 9
22 22 53 30 69 8 17 17 42 20 55 9 40 12 55 14 55 6 0 14 107 14 190 0 104 -6
158 -25 228 -7 23 -13 47 -15 52 -1 6 -13 36 -27 68 -15 31 -26 60 -26 64 1 3
-3 9 -8 12 -4 3 -24 31 -44 61 -89 136 -268 272 -409 310 -25 7 -52 15 -60 18
-8 3 -22 7 -30 9 -20 6 -257 13 -262 8z"/>
</g>
</svg>
