<svg xmlns="http://www.w3.org/2000/svg" viewBox="0 0 640 950">
  <path d="M633 861a80 84 0 0 1-80 84 80 84 0 0 1-80-84 80 84 0 0 1 80-83 80 84 0 0 1 80 83zm-466 0a80 84 0 0 1-80 84 80 84 0 0 1-80-84 80 84 0 0 1 80-83 80 84 0 0 1 80 83Zm443-328q23 24 23 54 0 28-22 52-22 22-52 22-33 0-56-28L319 430 136 633q-25 27-56 27-29 0-51-23-22-22-22-50 0-30 23-54l190-207L41 131q-24-23-24-53t23-51Q62 5 90 5q32 0 56 26l173 190L492 31q25-26 56-26 30 0 51 22 22 21 22 51t-23 53L418 326z" style="fill:#f2b101"/>
</svg>